<?xml version="1.0" encoding="utf-8"?>
<svg xmlns="http://www.w3.org/2000/svg" style="margin: auto; display: block; shape-rendering: auto;" width="190" height="57" preserveAspectRatio="xMidYMid">
<style type="text/css">
  text {
    text-anchor: middle; font-size: 35px; opacity: 0;
  }
</style>
<g style="transform-origin: 95px 28.5px 0px; transform: scale(0.4375);">
<g transform="translate(95,28.5)">
  <g transform="translate(0,0)"><g class="path" style="transform: matrix(1, 0, 0, 1, 0, 0); transform-origin: -154.06px 3.50072px 0px; animation: 1s linear -0.609231s infinite normal forwards running bounce-7164363d-d30c-40e6-8607-304ea88c78e5;"><path d="M46.48-44.24L46.48-44.24L46.48-44.24Q40.16-46.96 32.76-46.96L32.76-46.96L32.76-46.96Q25.36-46.96 20.76-42.24L20.76-42.24L20.76-42.24Q16.16-37.52 16.16-29.92L16.16-29.92L14.40-29.92L14.40-29.92Q14.40-38.24 19.52-43.48L19.52-43.48L19.52-43.48Q24.64-48.72 32.64-48.72L32.64-48.72L32.64-48.72Q39.04-48.72 46.48-46.24L46.48-46.24L46.48-46.24Q55.04-43.12 65.04-43.12L65.04-43.12L65.04-41.44L65.04-41.44Q59.04-41.44 55.44-42L55.44-42L55.44-42Q55.36-41.68 54.88-39.36L54.88-39.36L54.88-39.36Q51.92-26.24 50.08-18.48L50.08-18.48L71.52-18.48L79.68-53.20L81.36-53.20L70.16-5.12L70.16-5.12Q69.44-2.16 69.44-1.12L69.44-1.12L69.44-1.12Q69.44 2.24 72.56 2.24L72.56 2.24L72.56 2.24Q74.80 2.24 76.48-0.08L76.48-0.08L77.60 0.88L77.60 0.88Q77.04 1.92 75.60 2.84L75.60 2.84L75.60 2.84Q74.16 3.76 72.12 3.76L72.12 3.76L72.12 3.76Q70.08 3.76 68.92 2.40L68.92 2.40L68.92 2.40Q67.76 1.04 67.76-0.88L67.76-0.88L68.72-6.16L71.20-17.04L49.68-17.04L49.68-17.04Q48.80-13.68 47.92-9.76L47.92-9.76L47.92-9.76Q47.04-5.84 45.80-2.08L45.80-2.08L45.80-2.08Q44.56 1.68 42.40 5.68L42.40 5.68L42.40 5.68Q40.24 9.68 37.56 12.20L37.56 12.20L37.56 12.20Q34.88 14.72 30.84 16.36L30.84 16.36L30.84 16.36Q26.80 18 22.12 18L22.12 18L22.12 18Q17.44 18 13.28 16.24L13.28 16.24L13.28 16.24Q9.12 14.48 6.32 11.36L6.32 11.36L6.32 11.36Q1.52 5.84 1.52-2L1.52-2L1.52-2Q1.52-3.28 1.60-4.56L1.60-4.56L3.36-4.32L3.36-4.32Q3.28-3.20 3.28-2.08L3.28-2.08L3.28-2.08Q3.28 5.36 7.80 10.36L7.80 10.36L7.80 10.36Q12.32 15.36 20 15.36L20 15.36L20 15.36Q27.68 15.36 30.80 11.28L30.80 11.28L30.80 11.28Q33.92 7.20 36.76-4.40L36.76-4.40L36.76-4.40Q39.60-16 46.48-44.24" fill="#51cacc" stroke="none" stroke-width="none" transform="translate(-195.4999771118164,21.10072023831882)" style="fill: rgb(81, 202, 204);"></path></g><g class="path" style="transform: matrix(1, 0, 0, 1, 0, 0); transform-origin: -97.58px 5.90072px 0px; animation: 1s linear -0.558462s infinite normal forwards running bounce-7164363d-d30c-40e6-8607-304ea88c78e5;"><path d="M101.44-31.12L101.44-31.12L101.44-31.12Q111.60-31.12 111.60-23.04L111.60-23.04L111.60-23.04Q111.60-18 106.84-15.40L106.84-15.40L106.84-15.40Q102.08-12.80 93.28-12.72L93.28-12.72L93.28-12.72Q93.12-9.84 93.12-8.16L93.12-8.16L93.12-8.16Q93.12-4.56 94.76-2.84L94.76-2.84L94.76-2.84Q96.40-1.12 98.88-1.12L98.88-1.12L98.88-1.12Q101.36-1.12 103.40-2.08L103.40-2.08L103.40-2.08Q105.44-3.04 106.64-4.36L106.64-4.36L106.64-4.36Q107.84-5.68 108.72-7.12L108.72-7.12L108.72-7.12Q110.32-9.76 110.32-10.48L110.32-10.48L111.76-9.84L111.76-9.84Q111.52-8.56 110.32-6.44L110.32-6.44L110.32-6.44Q109.12-4.32 107.68-2.96L107.68-2.96L107.68-2.96Q106.24-1.60 103.44-0.44L103.44-0.44L103.44-0.44Q100.64 0.72 97.20 0.72L97.20 0.72L97.20 0.72Q90.72 0.72 87.40-2.36L87.40-2.36L87.40-2.36Q84.08-5.44 84.08-10.80L84.08-10.80L84.08-10.80Q84.08-20.32 88.80-25.72L88.80-25.72L88.80-25.72Q93.52-31.12 101.44-31.12zM109.60-23.04L109.60-23.04Q109.60-25.68 108.04-27.40L108.04-27.40L108.04-27.40Q106.48-29.12 103.40-29.12L103.40-29.12L103.40-29.12Q100.32-29.12 97.40-25.44L97.40-25.44L97.40-25.44Q94.48-21.76 93.52-14.56L93.52-14.56L93.52-14.56Q109.60-14.64 109.60-23.04L109.60-23.04" fill="#51cacc" stroke="none" stroke-width="none" transform="translate(-195.4999771118164,21.10072023831882)" style="fill: rgb(157, 248, 113);"></path></g><g class="path" style="transform: matrix(1, 0, 0, 1, 0, 0); transform-origin: -68.02px -4.45928px 0px; animation: 1s linear -0.507692s infinite normal forwards running bounce-7164363d-d30c-40e6-8607-304ea88c78e5;"><path d="M130.56-2.88L130.56-2.88L130.56-2.88Q129.52-1.52 127.72-0.40L127.72-0.40L127.72-0.40Q125.92 0.72 123.04 0.72L123.04 0.72L123.04 0.72Q120.16 0.72 118.16-1.12L118.16-1.12L118.16-1.12Q116.16-2.96 116.16-6.32L116.16-6.32L116.16-6.32Q116.16-6.96 116.32-8.40L116.32-8.40L121.52-37.20L121.52-37.20Q122.96-45.12 125.48-48.48L125.48-48.48L125.48-48.48Q128-51.84 132.16-51.84L132.16-51.84L132.16-51.84Q135.04-51.84 136.92-49.68L136.92-49.68L136.92-49.68Q138.80-47.52 138.80-43.12L138.80-43.12L138.80-43.12Q138.80-38.72 135.40-30.56L135.40-30.56L135.40-30.56Q132-22.40 132-18.64L132-18.64L130.56-18.64L130.56-18.64Q130.56-22.88 133.92-30.76L133.92-30.76L133.92-30.76Q137.28-38.64 137.28-43.36L137.28-43.36L137.28-43.36Q137.28-46.24 135.96-48.32L135.96-48.32L135.96-48.32Q134.64-50.40 132.72-50.40L132.72-50.40L132.72-50.40Q132.64-48.32 129.96-31.72L129.96-31.72L129.96-31.72Q127.28-15.12 124.64-0.88L124.64-0.88L124.64-0.88Q126.88-0.88 128.80-3.20L128.80-3.20L128.80-3.20Q130.72-5.52 131.52-7.84L131.52-7.84L132.40-10.24L133.84-9.60L133.84-9.60Q133.60-8.48 132.60-6.36L132.60-6.36L132.60-6.36Q131.60-4.24 130.56-2.88" fill="#51cacc" stroke="none" stroke-width="none" transform="translate(-195.4999771118164,21.10072023831882)" style="fill: rgb(224, 255, 119);"></path></g><g class="path" style="transform: matrix(1, 0, 0, 1, 0, 0); transform-origin: -45.78px -4.45928px 0px; animation: 1s linear -0.456923s infinite normal forwards running bounce-7164363d-d30c-40e6-8607-304ea88c78e5;"><path d="M152.80-2.88L152.80-2.88L152.80-2.88Q151.76-1.52 149.96-0.40L149.96-0.40L149.96-0.40Q148.16 0.72 145.28 0.72L145.28 0.72L145.28 0.72Q142.40 0.72 140.40-1.12L140.40-1.12L140.40-1.12Q138.40-2.96 138.40-6.32L138.40-6.32L138.40-6.32Q138.40-6.96 138.56-8.40L138.56-8.40L143.76-37.20L143.76-37.20Q145.20-45.12 147.72-48.48L147.72-48.48L147.72-48.48Q150.24-51.84 154.40-51.84L154.40-51.84L154.40-51.84Q157.28-51.84 159.16-49.68L159.16-49.68L159.16-49.68Q161.04-47.52 161.04-43.12L161.04-43.12L161.04-43.12Q161.04-38.72 157.64-30.56L157.64-30.56L157.64-30.56Q154.24-22.40 154.24-18.64L154.24-18.64L152.80-18.64L152.80-18.64Q152.80-22.88 156.16-30.76L156.16-30.76L156.16-30.76Q159.52-38.64 159.52-43.36L159.52-43.36L159.52-43.36Q159.52-46.24 158.20-48.32L158.20-48.32L158.20-48.32Q156.88-50.40 154.96-50.40L154.96-50.40L154.96-50.40Q154.88-48.32 152.20-31.72L152.20-31.72L152.20-31.72Q149.52-15.12 146.88-0.88L146.88-0.88L146.88-0.88Q149.12-0.88 151.04-3.20L151.04-3.20L151.04-3.20Q152.96-5.52 153.76-7.84L153.76-7.84L154.64-10.24L156.08-9.60L156.08-9.60Q155.84-8.48 154.84-6.36L154.84-6.36L154.84-6.36Q153.84-4.24 152.80-2.88" fill="#51cacc" stroke="none" stroke-width="none" transform="translate(-195.4999771118164,21.10072023831882)" style="fill: rgb(222, 157, 214);"></path></g><g class="path" style="transform: matrix(1, 0, 0, 1, 0, 0); transform-origin: -19.42px 5.90072px 0px; animation: 1s linear -0.406154s infinite normal forwards running bounce-7164363d-d30c-40e6-8607-304ea88c78e5;"><path d="M172.96 0.72L172.96 0.72Q166.80 0.72 163.60-2.36L163.60-2.36L163.60-2.36Q160.40-5.44 160.40-10.12L160.40-10.12L160.40-10.12Q160.40-14.80 161.24-18.12L161.24-18.12L161.24-18.12Q162.08-21.44 164-24.52L164-24.52L164-24.52Q165.92-27.60 169.80-29.36L169.80-29.36L169.80-29.36Q173.68-31.12 179.48-31.12L179.48-31.12L179.48-31.12Q185.28-31.12 188.52-28.04L188.52-28.04L188.52-28.04Q191.76-24.96 191.76-19.60L191.76-19.60L191.76-19.60Q191.76-10.48 186.92-4.88L186.92-4.88L186.92-4.88Q182.08 0.72 172.96 0.72L172.96 0.72zM169.44-7.52L169.44-7.52L169.44-7.52Q169.44-1.12 173.16-1.12L173.16-1.12L173.16-1.12Q176.88-1.12 179.80-7.56L179.80-7.56L179.80-7.56Q182.72-14 182.72-22.88L182.72-22.88L182.72-22.88Q182.72-29.60 179.08-29.60L179.08-29.60L179.08-29.60Q175.44-29.60 172.44-23.48L172.44-23.48L172.44-23.48Q169.44-17.36 169.44-7.52" fill="#51cacc" stroke="none" stroke-width="none" transform="translate(-195.4999771118164,21.10072023831882)" style="fill: rgb(255, 112, 142);"></path></g><g class="path" style="transform: matrix(1, 0, 0, 1, 0, 0); transform-origin: 4.90003px 20.2607px 0px; animation: 1s linear -0.355385s infinite normal forwards running bounce-7164363d-d30c-40e6-8607-304ea88c78e5;"><path d="M197.52-1.04L197.52-1.04L197.52-1.04Q195.84-2.72 195.84-5.12L195.84-5.12L195.84-5.12Q195.84-7.52 197.52-9.24L197.52-9.24L197.52-9.24Q199.20-10.96 201.60-10.96L201.60-10.96L201.60-10.96Q204-10.96 205.72-9.24L205.72-9.24L205.72-9.24Q207.44-7.52 207.44-5.12L207.44-5.12L207.44-5.12Q207.44-1.20 203.96 3.12L203.96 3.12L203.96 3.12Q200.48 7.44 194.08 9.28L194.08 9.28L193.36 7.60L193.36 7.60Q196.96 6.40 199.48 4.60L199.48 4.60L199.48 4.60Q202 2.80 202.72 1.60L202.72 1.60L203.44 0.32L203.44 0.32Q202.72 0.64 201.60 0.64L201.60 0.64L201.60 0.64Q199.20 0.64 197.52-1.04" fill="#51cacc" stroke="none" stroke-width="none" transform="translate(-195.4999771118164,21.10072023831882)" style="fill: rgb(81, 202, 204);"></path></g><g class="path" style="transform: matrix(1, 0, 0, 1, 0, 0); transform-origin: 48.74px -2.01928px 0px; animation: 1s linear -0.304615s infinite normal forwards running bounce-7164363d-d30c-40e6-8607-304ea88c78e5;"><path d="M250.64-51.84L250.64-51.84L250.64-51.84Q253.52-51.84 255.40-49.68L255.40-49.68L255.40-49.68Q257.28-47.52 257.28-43.20L257.28-43.20L257.28-43.20Q257.28-38.88 253.84-30.40L253.84-30.40L256.88-30.40L256.72-28.96L253.20-28.96L253.20-28.96Q250.48-22.16 250.48-18.64L250.48-18.64L249.04-18.64L249.04-18.64Q249.04-22.80 251.68-28.96L251.68-28.96L247.04-28.96L247.04-28.96Q244.64-16.40 240.88 5.60L240.88 5.60L231.20 5.60L237.36-28.96L232.48-28.96L232.64-30.40L237.60-30.40L238.88-37.28L238.88-37.28Q240.16-45.20 242.84-48.52L242.84-48.52L242.84-48.52Q245.52-51.84 250.64-51.84zM255.76-43.36L255.76-43.36L255.76-43.36Q255.76-46.24 254.44-48.32L254.44-48.32L254.44-48.32Q253.12-50.40 251.20-50.40L251.20-50.40L251.20-50.40Q250.40-47.28 247.28-30.40L247.28-30.40L252.24-30.40L252.24-30.40Q255.76-38.40 255.76-43.36" fill="#51cacc" stroke="none" stroke-width="none" transform="translate(-195.4999771118164,21.10072023831882)" style="fill: rgb(157, 248, 113);"></path></g><g class="path" style="transform: matrix(1, 0, 0, 1, 0, 0); transform-origin: 75.94px 5.90072px 0px; animation: 1s linear -0.253846s infinite normal forwards running bounce-7164363d-d30c-40e6-8607-304ea88c78e5;"><path d="M268.32 0.72L268.32 0.72Q262.16 0.72 258.96-2.36L258.96-2.36L258.96-2.36Q255.76-5.44 255.76-10.12L255.76-10.12L255.76-10.12Q255.76-14.80 256.60-18.12L256.60-18.12L256.60-18.12Q257.44-21.44 259.36-24.52L259.36-24.52L259.36-24.52Q261.28-27.60 265.16-29.36L265.16-29.36L265.16-29.36Q269.04-31.12 274.84-31.12L274.84-31.12L274.84-31.12Q280.64-31.12 283.88-28.04L283.88-28.04L283.88-28.04Q287.12-24.96 287.12-19.60L287.12-19.60L287.12-19.60Q287.12-10.48 282.28-4.88L282.28-4.88L282.28-4.88Q277.44 0.72 268.32 0.72L268.32 0.72zM264.80-7.52L264.80-7.52L264.80-7.52Q264.80-1.12 268.52-1.12L268.52-1.12L268.52-1.12Q272.24-1.12 275.16-7.56L275.16-7.56L275.16-7.56Q278.08-14 278.08-22.88L278.08-22.88L278.08-22.88Q278.08-29.60 274.44-29.60L274.44-29.60L274.44-29.60Q270.80-29.60 267.80-23.48L267.80-23.48L267.80-23.48Q264.80-17.36 264.80-7.52" fill="#51cacc" stroke="none" stroke-width="none" transform="translate(-195.4999771118164,21.10072023831882)" style="fill: rgb(224, 255, 119);"></path></g><g class="path" style="transform: matrix(1, 0, 0, 1, 0, 0); transform-origin: 107.1px -4.45928px 0px; animation: 1s linear -0.203077s infinite normal forwards running bounce-7164363d-d30c-40e6-8607-304ea88c78e5;"><path d="M305.68-2.88L305.68-2.88L305.68-2.88Q304.64-1.52 302.84-0.40L302.84-0.40L302.84-0.40Q301.04 0.72 298.16 0.72L298.16 0.72L298.16 0.72Q295.28 0.72 293.28-1.12L293.28-1.12L293.28-1.12Q291.28-2.96 291.28-6.32L291.28-6.32L291.28-6.32Q291.28-6.96 291.44-8.40L291.44-8.40L296.64-37.20L296.64-37.20Q298.08-45.12 300.60-48.48L300.60-48.48L300.60-48.48Q303.12-51.84 307.28-51.84L307.28-51.84L307.28-51.84Q310.16-51.84 312.04-49.68L312.04-49.68L312.04-49.68Q313.92-47.52 313.92-43.12L313.92-43.12L313.92-43.12Q313.92-38.72 310.52-30.56L310.52-30.56L310.52-30.56Q307.12-22.40 307.12-18.64L307.12-18.64L305.68-18.64L305.68-18.64Q305.68-22.88 309.04-30.76L309.04-30.76L309.04-30.76Q312.40-38.64 312.40-43.36L312.40-43.36L312.40-43.36Q312.40-46.24 311.08-48.32L311.08-48.32L311.08-48.32Q309.76-50.40 307.84-50.40L307.84-50.40L307.84-50.40Q307.76-48.32 305.08-31.72L305.08-31.72L305.08-31.72Q302.40-15.12 299.76-0.88L299.76-0.88L299.76-0.88Q302-0.88 303.92-3.20L303.92-3.20L303.92-3.20Q305.84-5.52 306.64-7.84L306.64-7.84L307.52-10.24L308.96-9.60L308.96-9.60Q308.72-8.48 307.72-6.36L307.72-6.36L307.72-6.36Q306.72-4.24 305.68-2.88" fill="#51cacc" stroke="none" stroke-width="none" transform="translate(-195.4999771118164,21.10072023831882)" style="fill: rgb(222, 157, 214);"></path></g><g class="path" style="transform: matrix(1, 0, 0, 1, 0, 0); transform-origin: 134.3px -4.45928px 0px; animation: 1s linear -0.152308s infinite normal forwards running bounce-7164363d-d30c-40e6-8607-304ea88c78e5;"><path d="M324.80-15.44L324.80-15.44L321.92 0L312.40 0L321.44-50.24L321.44-50.24Q319.04-50 317.44-48L317.44-48L316.24-48.96L316.24-48.96Q318.64-51.84 322.28-51.84L322.28-51.84L322.28-51.84Q325.92-51.84 327.92-50L327.92-50L327.92-50Q329.92-48.16 329.92-44.80L329.92-44.80L329.92-44.80Q329.92-44.16 329.76-42.72L329.76-42.72L329.76-42.72Q327.92-32.56 325.76-20.80L325.76-20.80L325.76-20.80Q327.76-25.68 331.52-28.40L331.52-28.40L331.52-28.40Q335.28-31.12 339.52-31.12L339.52-31.12L339.52-31.12Q343.76-31.12 345.48-29.44L345.48-29.44L345.48-29.44Q347.20-27.76 347.20-25.24L347.20-25.24L347.20-25.24Q347.20-22.72 345.68-21.12L345.68-21.12L345.68-21.12Q344.16-19.52 341.72-19.52L341.72-19.52L341.72-19.52Q339.28-19.52 337.96-20.92L337.96-20.92L337.96-20.92Q336.64-22.32 336.64-25.08L336.64-25.08L336.64-25.08Q336.64-27.84 338.56-29.28L338.56-29.28L338.56-29.28Q330.88-28.40 326.32-17.92L326.32-17.92L326.32-17.92Q327.44-18.08 328.24-18.08L328.24-18.08L328.24-18.08Q332.48-18.08 334.92-16.40L334.92-16.40L334.92-16.40Q337.36-14.72 338.08-12.28L338.08-12.28L338.08-12.28Q338.80-9.84 339.12-7.40L339.12-7.40L339.12-7.40Q339.44-4.96 340.16-3.28L340.16-3.28L340.16-3.28Q340.88-1.60 342.72-1.60L342.72-1.60L342.72-1.60Q344.56-1.60 345.60-3.12L345.60-3.12L346.80-2.16L346.80-2.16Q346.24-1.04 344.32-0.16L344.32-0.16L344.32-0.16Q342.40 0.72 339.40 0.72L339.40 0.72L339.40 0.72Q336.40 0.72 334.12-0.80L334.12-0.80L334.12-0.80Q331.84-2.32 330.96-4.60L330.96-4.60L330.96-4.60Q330.08-6.88 329.52-9.12L329.52-9.12L329.52-9.12Q328-14.88 324.80-15.44" fill="#51cacc" stroke="none" stroke-width="none" transform="translate(-195.4999771118164,21.10072023831882)" style="fill: rgb(255, 112, 142);"></path></g><g class="path" style="transform: matrix(1, 0, 0, 1, 0, 0); transform-origin: 165.54px 4.06072px 0px; animation: 1s linear -0.101538s infinite normal forwards running bounce-7164363d-d30c-40e6-8607-304ea88c78e5;"><path d="M357.12-1.36L357.12-1.36L357.12-1.36Q365.04-1.36 365.04-13.04L365.04-13.04L365.04-13.04Q365.04-15.92 364.20-19.84L364.20-19.84L364.20-19.84Q363.36-23.76 363.20-24.72L363.20-24.72L363.20-24.72Q358.32-19.68 352.24-18.64L352.24-18.64L352.24-20.56L352.24-20.56Q358.00-21.84 363.04-27.12L363.04-27.12L363.04-27.44L363.04-27.44Q363.04-29.36 363.60-31.20L363.60-31.20L363.60-31.20Q364.16-33.04 364.72-33.92L364.72-33.92L365.28-34.80L367.20-34.80L367.20-34.80Q367.20-31.28 368.32-28.36L368.32-28.36L368.32-28.36Q369.44-25.44 370.80-23.64L370.80-23.64L370.80-23.64Q372.16-21.84 373.28-18.92L373.28-18.92L373.28-18.92Q374.40-16 374.40-12.48L374.40-12.48L374.40-12.48Q374.40-6.80 370.12-3.04L370.12-3.04L370.12-3.04Q365.84 0.72 359.84 0.72L359.84 0.72L359.84 0.72Q353.84 0.72 350.76-2L350.76-2L350.76-2Q347.68-4.72 347.68-8.28L347.68-8.28L347.68-8.28Q347.68-11.84 349.44-13.40L349.44-13.40L349.44-13.40Q351.20-14.96 353.60-14.96L353.60-14.96L353.60-14.96Q356.00-14.96 357.56-13.40L357.56-13.40L357.56-13.40Q359.12-11.84 359.12-9.40L359.12-9.40L359.12-9.40Q359.12-6.96 357.60-5.28L357.60-5.28L357.60-5.28Q356.08-3.60 353.68-3.60L353.68-3.60L353.68-3.60Q352.64-3.60 351.52-3.92L351.52-3.92L351.52-3.92Q353.28-1.36 357.12-1.36" fill="#51cacc" stroke="none" stroke-width="none" transform="translate(-195.4999771118164,21.10072023831882)" style="fill: rgb(81, 202, 204);"></path></g><g class="path" style="transform: matrix(1, 0, 0, 1, 0, 0); transform-origin: 187.26px 17.7007px 0px; animation: 1s linear -0.0507692s infinite normal forwards running bounce-7164363d-d30c-40e6-8607-304ea88c78e5;"><path d="M379.88-0.52L379.88-0.52L379.88-0.52Q378.72-1.68 378.72-3.36L378.72-3.36L378.72-3.36Q378.72-5.04 379.88-6.24L379.88-6.24L379.88-6.24Q381.04-7.44 382.72-7.44L382.72-7.44L382.72-7.44Q384.40-7.44 385.60-6.24L385.60-6.24L385.60-6.24Q386.80-5.04 386.80-3.36L386.80-3.36L386.80-3.36Q386.80-1.68 385.60-0.52L385.60-0.52L385.60-0.52Q384.40 0.64 382.72 0.64L382.72 0.64L382.72 0.64Q381.04 0.64 379.88-0.52" fill="#51cacc" stroke="none" stroke-width="none" transform="translate(-195.4999771118164,21.10072023831882)" style="fill: rgb(157, 248, 113);"></path></g><g class="path" style="transform: matrix(1, 0, 0, 1, 0, 0); transform-origin: 192.34px -8.33928px 0px; animation: 1s linear 0s infinite normal forwards running bounce-7164363d-d30c-40e6-8607-304ea88c78e5;"><path d="M385.36-9.76L383.20-10L390.16-49.12L392.48-48.80L385.36-9.76" fill="#51cacc" stroke="none" stroke-width="none" transform="translate(-195.4999771118164,21.10072023831882)" style="fill: rgb(224, 255, 119);"></path></g></g>
</g>
</g>
<style id="bounce-7164363d-d30c-40e6-8607-304ea88c78e5" data-anikit="">@keyframes bounce-7164363d-d30c-40e6-8607-304ea88c78e5
{
  0% {
    animation-timing-function: cubic-bezier(0.1361,0.2514,0.2175,0.8786);
    transform: translate(0,0px) scaleY(1);
  }
  37% {
    animation-timing-function: cubic-bezier(0.7674,0.1844,0.8382,0.7157);
    transform: translate(0,-39.96px) scaleY(1);
  }
  72% {
    animation-timing-function: cubic-bezier(0.1118,0.2149,0.2172,0.941);
    transform: translate(0,0px) scaleY(1);
  }
  87% {
    animation-timing-function: cubic-bezier(0.7494,0.2259,0.8209,0.6963);
    transform: translate(0,19.900000000000002px) scaleY(0.602);
  }
  100% {
    transform: translate(0,0px) scaleY(1);
  }
}</style></svg>