<?xml version="1.0" encoding="utf-8"?>
<svg xmlns="http://www.w3.org/2000/svg" style="margin: auto; display: block; shape-rendering: auto;" width="190" height="52" preserveAspectRatio="xMidYMid">
<style type="text/css">
  text {
    text-anchor: middle; font-size: 37px; opacity: 0;
  }
</style>
<g style="transform-origin:95px 26px;transform:scale(1)">
<g transform="translate(95,26)">
  <g transform="translate(0,0)"><g class="path" style="opacity: 1; transform-origin: -71.26px 1.62051px 0px; animation: 1s linear -0.609231s infinite normal forwards running blink-7ffda10c-09c8-4e6a-b42e-0e65e7619315;"><path d="M21.50-20.46L21.50-20.46L21.50-20.46Q18.57-21.72 15.15-21.72L15.15-21.72L15.15-21.72Q11.73-21.72 9.60-19.54L9.60-19.54L9.60-19.54Q7.47-17.35 7.47-13.84L7.47-13.84L6.66-13.84L6.66-13.84Q6.66-17.69 9.03-20.11L9.03-20.11L9.03-20.11Q11.40-22.53 15.10-22.53L15.10-22.53L15.10-22.53Q18.06-22.53 21.50-21.39L21.50-21.39L21.50-21.39Q25.46-19.94 30.08-19.94L30.08-19.94L30.08-19.17L30.08-19.17Q27.31-19.17 25.64-19.43L25.64-19.43L25.64-19.43Q25.60-19.28 25.38-18.20L25.38-18.20L25.38-18.20Q24.01-12.14 23.16-8.55L23.16-8.55L33.08-8.55L36.85-24.61L37.63-24.61L32.45-2.37L32.45-2.37Q32.12-1.00 32.12-0.52L32.12-0.52L32.12-0.52Q32.12 1.04 33.56 1.04L33.56 1.04L33.56 1.04Q34.59 1.04 35.37-0.04L35.37-0.04L35.89 0.41L35.89 0.41Q35.63 0.89 34.96 1.31L34.96 1.31L34.96 1.31Q34.30 1.74 33.36 1.74L33.36 1.74L33.36 1.74Q32.41 1.74 31.88 1.11L31.88 1.11L31.88 1.11Q31.34 0.48 31.34-0.41L31.34-0.41L31.78-2.85L32.93-7.88L22.98-7.88L22.98-7.88Q22.57-6.33 22.16-4.51L22.16-4.51L22.16-4.51Q21.76-2.70 21.18-0.96L21.18-0.96L21.18-0.96Q20.61 0.78 19.61 2.63L19.61 2.63L19.61 2.63Q18.61 4.48 17.37 5.64L17.37 5.64L17.37 5.64Q16.13 6.81 14.26 7.57L14.26 7.57L14.26 7.57Q12.39 8.32 10.23 8.32L10.23 8.32L10.23 8.32Q8.07 8.32 6.14 7.51L6.14 7.51L6.14 7.51Q4.22 6.70 2.92 5.25L2.92 5.25L2.92 5.25Q0.70 2.70 0.70-0.92L0.70-0.92L0.70-0.92Q0.70-1.52 0.74-2.11L0.74-2.11L1.55-2.00L1.55-2.00Q1.52-1.48 1.52-0.96L1.52-0.96L1.52-0.96Q1.52 2.48 3.61 4.79L3.61 4.79L3.61 4.79Q5.70 7.10 9.25 7.10L9.25 7.10L9.25 7.10Q12.80 7.10 14.24 5.22L14.24 5.22L14.24 5.22Q15.69 3.33 17.00-2.03L17.00-2.03L17.00-2.03Q18.31-7.40 21.50-20.46" fill="#51cacc" stroke="none" stroke-width="none" transform="translate(-90.42500305175781,9.765509995680587)" style="fill: rgb(81, 202, 204);"></path></g><g class="path" style="opacity: 1; transform-origin: -45.135px 2.73551px 0px; animation: 1s linear -0.558462s infinite normal forwards running blink-7ffda10c-09c8-4e6a-b42e-0e65e7619315;"><path d="M46.92-14.39L46.92-14.39L46.92-14.39Q51.61-14.39 51.61-10.66L51.61-10.66L51.61-10.66Q51.61-8.32 49.41-7.12L49.41-7.12L49.41-7.12Q47.21-5.92 43.14-5.88L43.14-5.88L43.14-5.88Q43.07-4.55 43.07-3.77L43.07-3.77L43.07-3.77Q43.07-2.11 43.83-1.31L43.83-1.31L43.83-1.31Q44.59-0.52 45.73-0.52L45.73-0.52L45.73-0.52Q46.88-0.52 47.82-0.96L47.82-0.96L47.82-0.96Q48.77-1.41 49.32-2.02L49.32-2.02L49.32-2.02Q49.88-2.63 50.28-3.29L50.28-3.29L50.28-3.29Q51.02-4.51 51.02-4.85L51.02-4.85L51.69-4.55L51.69-4.55Q51.58-3.96 51.02-2.98L51.02-2.98L51.02-2.98Q50.47-2.00 49.80-1.37L49.80-1.37L49.80-1.37Q49.14-0.74 47.84-0.20L47.84-0.20L47.84-0.20Q46.55 0.33 44.95 0.33L44.95 0.33L44.95 0.33Q41.96 0.33 40.42-1.09L40.42-1.09L40.42-1.09Q38.89-2.52 38.89-5.00L38.89-5.00L38.89-5.00Q38.89-9.40 41.07-11.90L41.07-11.90L41.07-11.90Q43.25-14.39 46.92-14.39zM50.69-10.66L50.69-10.66Q50.69-11.88 49.97-12.67L49.97-12.67L49.97-12.67Q49.25-13.47 47.82-13.47L47.82-13.47L47.82-13.47Q46.40-13.47 45.05-11.77L45.05-11.77L45.05-11.77Q43.70-10.06 43.25-6.73L43.25-6.73L43.25-6.73Q50.69-6.77 50.69-10.66L50.69-10.66" fill="#51cacc" stroke="none" stroke-width="none" transform="translate(-90.42500305175781,9.765509995680587)" style="fill: rgb(157, 248, 113);"></path></g><g class="path" style="opacity: 1; transform-origin: -31.47px -2.05949px 0px; animation: 1s linear -0.507692s infinite normal forwards running blink-7ffda10c-09c8-4e6a-b42e-0e65e7619315;"><path d="M60.38-1.33L60.38-1.33L60.38-1.33Q59.90-0.70 59.07-0.18L59.07-0.18L59.07-0.18Q58.24 0.33 56.91 0.33L56.91 0.33L56.91 0.33Q55.57 0.33 54.65-0.52L54.65-0.52L54.65-0.52Q53.72-1.37 53.72-2.92L53.72-2.92L53.72-2.92Q53.72-3.22 53.80-3.88L53.80-3.88L56.20-17.20L56.20-17.20Q56.87-20.87 58.03-22.42L58.03-22.42L58.03-22.42Q59.20-23.98 61.12-23.98L61.12-23.98L61.12-23.98Q62.46-23.98 63.33-22.98L63.33-22.98L63.33-22.98Q64.19-21.98 64.19-19.94L64.19-19.94L64.19-19.94Q64.19-17.91 62.62-14.13L62.62-14.13L62.62-14.13Q61.05-10.36 61.05-8.62L61.05-8.62L60.38-8.62L60.38-8.62Q60.38-10.58 61.94-14.23L61.94-14.23L61.94-14.23Q63.49-17.87 63.49-20.05L63.49-20.05L63.49-20.05Q63.49-21.39 62.88-22.35L62.88-22.35L62.88-22.35Q62.27-23.31 61.38-23.31L61.38-23.31L61.38-23.31Q61.35-22.35 60.11-14.67L60.11-14.67L60.11-14.67Q58.87-6.99 57.65-0.41L57.65-0.41L57.65-0.41Q58.68-0.41 59.57-1.48L59.57-1.48L59.57-1.48Q60.46-2.55 60.83-3.63L60.83-3.63L61.23-4.74L61.90-4.44L61.90-4.44Q61.79-3.92 61.33-2.94L61.33-2.94L61.33-2.94Q60.86-1.96 60.38-1.33" fill="#51cacc" stroke="none" stroke-width="none" transform="translate(-90.42500305175781,9.765509995680587)" style="fill: rgb(224, 255, 119);"></path></g><g class="path" style="opacity: 1; transform-origin: -21.18px -2.05949px 0px; animation: 1s linear -0.456923s infinite normal forwards running blink-7ffda10c-09c8-4e6a-b42e-0e65e7619315;"><path d="M70.67-1.33L70.67-1.33L70.67-1.33Q70.19-0.70 69.36-0.18L69.36-0.18L69.36-0.18Q68.52 0.33 67.19 0.33L67.19 0.33L67.19 0.33Q65.86 0.33 64.94-0.52L64.94-0.52L64.94-0.52Q64.01-1.37 64.01-2.92L64.01-2.92L64.01-2.92Q64.01-3.22 64.08-3.88L64.08-3.88L66.49-17.20L66.49-17.20Q67.16-20.87 68.32-22.42L68.32-22.42L68.32-22.42Q69.49-23.98 71.41-23.98L71.41-23.98L71.41-23.98Q72.74-23.98 73.61-22.98L73.61-22.98L73.61-22.98Q74.48-21.98 74.48-19.94L74.48-19.94L74.48-19.94Q74.48-17.91 72.91-14.13L72.91-14.13L72.91-14.13Q71.34-10.36 71.34-8.62L71.34-8.62L70.67-8.62L70.67-8.62Q70.67-10.58 72.22-14.23L72.22-14.23L72.22-14.23Q73.78-17.87 73.78-20.05L73.78-20.05L73.78-20.05Q73.78-21.39 73.17-22.35L73.17-22.35L73.17-22.35Q72.56-23.31 71.67-23.31L71.67-23.31L71.67-23.31Q71.63-22.35 70.39-14.67L70.39-14.67L70.39-14.67Q69.15-6.99 67.93-0.41L67.93-0.41L67.93-0.41Q68.97-0.41 69.86-1.48L69.86-1.48L69.86-1.48Q70.74-2.55 71.11-3.63L71.11-3.63L71.52-4.74L72.19-4.44L72.19-4.44Q72.08-3.92 71.61-2.94L71.61-2.94L71.61-2.94Q71.15-1.96 70.67-1.33" fill="#51cacc" stroke="none" stroke-width="none" transform="translate(-90.42500305175781,9.765509995680587)" style="fill: rgb(222, 157, 214);"></path></g><g class="path" style="opacity: 1; transform-origin: -8.985px 2.73551px 0px; animation: 1s linear -0.406154s infinite normal forwards running blink-7ffda10c-09c8-4e6a-b42e-0e65e7619315;"><path d="M79.99 0.33L79.99 0.33Q77.14 0.33 75.66-1.09L75.66-1.09L75.66-1.09Q74.19-2.52 74.19-4.68L74.19-4.68L74.19-4.68Q74.19-6.84 74.57-8.38L74.57-8.38L74.57-8.38Q74.96-9.92 75.85-11.34L75.85-11.34L75.85-11.34Q76.74-12.76 78.53-13.58L78.53-13.58L78.53-13.58Q80.33-14.39 83.01-14.39L83.01-14.39L83.01-14.39Q85.69-14.39 87.19-12.97L87.19-12.97L87.19-12.97Q88.69-11.54 88.69-9.06L88.69-9.06L88.69-9.06Q88.69-4.85 86.45-2.26L86.45-2.26L86.45-2.26Q84.21 0.33 79.99 0.33L79.99 0.33zM78.37-3.48L78.37-3.48L78.37-3.48Q78.37-0.52 80.09-0.52L80.09-0.52L80.09-0.52Q81.81-0.52 83.16-3.50L83.16-3.50L83.16-3.50Q84.51-6.47 84.51-10.58L84.51-10.58L84.51-10.58Q84.51-13.69 82.82-13.69L82.82-13.69L82.82-13.69Q81.14-13.69 79.75-10.86L79.75-10.86L79.75-10.86Q78.37-8.03 78.37-3.48" fill="#51cacc" stroke="none" stroke-width="none" transform="translate(-90.42500305175781,9.765509995680587)" style="fill: rgb(255, 112, 142);"></path></g><g class="path" style="opacity: 1; transform-origin: 2.26px 9.37551px 0px; animation: 1s linear -0.355385s infinite normal forwards running blink-7ffda10c-09c8-4e6a-b42e-0e65e7619315;"><path d="M91.35-0.48L91.35-0.48L91.35-0.48Q90.58-1.26 90.58-2.37L90.58-2.37L90.58-2.37Q90.58-3.48 91.35-4.27L91.35-4.27L91.35-4.27Q92.13-5.07 93.24-5.07L93.24-5.07L93.24-5.07Q94.35-5.07 95.15-4.27L95.15-4.27L95.15-4.27Q95.94-3.48 95.94-2.37L95.94-2.37L95.94-2.37Q95.94-0.55 94.33 1.44L94.33 1.44L94.33 1.44Q92.72 3.44 89.76 4.29L89.76 4.29L89.43 3.51L89.43 3.51Q91.09 2.96 92.26 2.13L92.26 2.13L92.26 2.13Q93.42 1.29 93.76 0.74L93.76 0.74L94.09 0.15L94.09 0.15Q93.76 0.30 93.24 0.30L93.24 0.30L93.24 0.30Q92.13 0.30 91.35-0.48" fill="#51cacc" stroke="none" stroke-width="none" transform="translate(-90.42500305175781,9.765509995680587)" style="fill: rgb(81, 202, 204);"></path></g><g class="path" style="opacity: 1; transform-origin: 22.535px -0.92949px 0px; animation: 1s linear -0.304615s infinite normal forwards running blink-7ffda10c-09c8-4e6a-b42e-0e65e7619315;"><path d="M115.92-23.98L115.92-23.98L115.92-23.98Q117.25-23.98 118.12-22.98L118.12-22.98L118.12-22.98Q118.99-21.98 118.99-19.98L118.99-19.98L118.99-19.98Q118.99-17.98 117.40-14.06L117.40-14.06L118.81-14.06L118.73-13.39L117.10-13.39L117.10-13.39Q115.85-10.25 115.85-8.62L115.85-8.62L115.18-8.62L115.18-8.62Q115.18-10.54 116.40-13.39L116.40-13.39L114.26-13.39L114.26-13.39Q113.15-7.58 111.41 2.59L111.41 2.59L106.93 2.59L109.78-13.39L107.52-13.39L107.60-14.06L109.89-14.06L110.48-17.24L110.48-17.24Q111.07-20.90 112.31-22.44L112.31-22.44L112.31-22.44Q113.55-23.98 115.92-23.98zM118.29-20.05L118.29-20.05L118.29-20.05Q118.29-21.39 117.68-22.35L117.68-22.35L117.68-22.35Q117.07-23.31 116.18-23.31L116.18-23.31L116.18-23.31Q115.81-21.87 114.37-14.06L114.37-14.06L116.66-14.06L116.66-14.06Q118.29-17.76 118.29-20.05" fill="#51cacc" stroke="none" stroke-width="none" transform="translate(-90.42500305175781,9.765509995680587)" style="fill: rgb(157, 248, 113);"></path></g><g class="path" style="opacity: 1; transform-origin: 35.115px 2.73551px 0px; animation: 1s linear -0.253846s infinite normal forwards running blink-7ffda10c-09c8-4e6a-b42e-0e65e7619315;"><path d="M124.10 0.33L124.10 0.33Q121.25 0.33 119.77-1.09L119.77-1.09L119.77-1.09Q118.29-2.52 118.29-4.68L118.29-4.68L118.29-4.68Q118.29-6.84 118.68-8.38L118.68-8.38L118.68-8.38Q119.07-9.92 119.95-11.34L119.95-11.34L119.95-11.34Q120.84-12.76 122.64-13.58L122.64-13.58L122.64-13.58Q124.43-14.39 127.11-14.39L127.11-14.39L127.11-14.39Q129.80-14.39 131.29-12.97L131.29-12.97L131.29-12.97Q132.79-11.54 132.79-9.06L132.79-9.06L132.79-9.06Q132.79-4.85 130.55-2.26L130.55-2.26L130.55-2.26Q128.32 0.33 124.10 0.33L124.10 0.33zM122.47-3.48L122.47-3.48L122.47-3.48Q122.47-0.52 124.19-0.52L124.19-0.52L124.19-0.52Q125.91-0.52 127.26-3.50L127.26-3.50L127.26-3.50Q128.61-6.47 128.61-10.58L128.61-10.58L128.61-10.58Q128.61-13.69 126.93-13.69L126.93-13.69L126.93-13.69Q125.24-13.69 123.86-10.86L123.86-10.86L123.86-10.86Q122.47-8.03 122.47-3.48" fill="#51cacc" stroke="none" stroke-width="none" transform="translate(-90.42500305175781,9.765509995680587)" style="fill: rgb(224, 255, 119);"></path></g><g class="path" style="opacity: 1; transform-origin: 49.53px -2.05949px 0px; animation: 1s linear -0.203077s infinite normal forwards running blink-7ffda10c-09c8-4e6a-b42e-0e65e7619315;"><path d="M141.38-1.33L141.38-1.33L141.38-1.33Q140.90-0.70 140.06-0.18L140.06-0.18L140.06-0.18Q139.23 0.33 137.90 0.33L137.90 0.33L137.90 0.33Q136.57 0.33 135.64-0.52L135.64-0.52L135.64-0.52Q134.72-1.37 134.72-2.92L134.72-2.92L134.72-2.92Q134.72-3.22 134.79-3.88L134.79-3.88L137.20-17.20L137.20-17.20Q137.86-20.87 139.03-22.42L139.03-22.42L139.03-22.42Q140.19-23.98 142.12-23.98L142.12-23.98L142.12-23.98Q143.45-23.98 144.32-22.98L144.32-22.98L144.32-22.98Q145.19-21.98 145.19-19.94L145.19-19.94L145.19-19.94Q145.19-17.91 143.62-14.13L143.62-14.13L143.62-14.13Q142.04-10.36 142.04-8.62L142.04-8.62L141.38-8.62L141.38-8.62Q141.38-10.58 142.93-14.23L142.93-14.23L142.93-14.23Q144.49-17.87 144.49-20.05L144.49-20.05L144.49-20.05Q144.49-21.39 143.87-22.35L143.87-22.35L143.87-22.35Q143.26-23.31 142.38-23.31L142.38-23.31L142.38-23.31Q142.34-22.35 141.10-14.67L141.10-14.67L141.10-14.67Q139.86-6.99 138.64-0.41L138.64-0.41L138.64-0.41Q139.68-0.41 140.56-1.48L140.56-1.48L140.56-1.48Q141.45-2.55 141.82-3.63L141.82-3.63L142.23-4.74L142.89-4.44L142.89-4.44Q142.78-3.92 142.32-2.94L142.32-2.94L142.32-2.94Q141.86-1.96 141.38-1.33" fill="#51cacc" stroke="none" stroke-width="none" transform="translate(-90.42500305175781,9.765509995680587)" style="fill: rgb(222, 157, 214);"></path></g><g class="path" style="opacity: 1; transform-origin: 62.11px -2.05949px 0px; animation: 1s linear -0.152308s infinite normal forwards running blink-7ffda10c-09c8-4e6a-b42e-0e65e7619315;"><path d="M150.22-7.14L150.22-7.14L148.89 0L144.49 0L148.67-23.24L148.67-23.24Q147.56-23.13 146.82-22.20L146.82-22.20L146.26-22.64L146.26-22.64Q147.37-23.98 149.05-23.98L149.05-23.98L149.05-23.98Q150.74-23.98 151.66-23.13L151.66-23.13L151.66-23.13Q152.59-22.27 152.59-20.72L152.59-20.72L152.59-20.72Q152.59-20.42 152.51-19.76L152.51-19.76L152.51-19.76Q151.66-15.06 150.66-9.62L150.66-9.62L150.66-9.62Q151.59-11.88 153.33-13.13L153.33-13.13L153.33-13.13Q155.07-14.39 157.03-14.39L157.03-14.39L157.03-14.39Q158.99-14.39 159.78-13.62L159.78-13.62L159.78-13.62Q160.58-12.84 160.58-11.67L160.58-11.67L160.58-11.67Q160.58-10.51 159.88-9.77L159.88-9.77L159.88-9.77Q159.17-9.03 158.05-9.03L158.05-9.03L158.05-9.03Q156.92-9.03 156.31-9.68L156.31-9.68L156.31-9.68Q155.70-10.32 155.70-11.60L155.70-11.60L155.70-11.60Q155.70-12.88 156.58-13.54L156.58-13.54L156.58-13.54Q153.03-13.13 150.92-8.29L150.92-8.29L150.92-8.29Q151.44-8.36 151.81-8.36L151.81-8.36L151.81-8.36Q153.77-8.36 154.90-7.58L154.90-7.58L154.90-7.58Q156.03-6.81 156.36-5.68L156.36-5.68L156.36-5.68Q156.69-4.55 156.84-3.42L156.84-3.42L156.84-3.42Q156.99-2.29 157.32-1.52L157.32-1.52L157.32-1.52Q157.66-0.74 158.51-0.74L158.51-0.74L158.51-0.74Q159.36-0.74 159.84-1.44L159.84-1.44L160.40-1.00L160.40-1.00Q160.14-0.48 159.25-0.07L159.25-0.07L159.25-0.07Q158.36 0.33 156.97 0.33L156.97 0.33L156.97 0.33Q155.59 0.33 154.53-0.37L154.53-0.37L154.53-0.37Q153.48-1.07 153.07-2.13L153.07-2.13L153.07-2.13Q152.66-3.18 152.40-4.22L152.40-4.22L152.40-4.22Q151.70-6.88 150.22-7.14" fill="#51cacc" stroke="none" stroke-width="none" transform="translate(-90.42500305175781,9.765509995680587)" style="fill: rgb(255, 112, 142);"></path></g><g class="path" style="opacity: 1; transform-origin: 76.555px 1.88551px 0px; animation: 1s linear -0.101538s infinite normal forwards running blink-7ffda10c-09c8-4e6a-b42e-0e65e7619315;"><path d="M165.17-0.63L165.17-0.63L165.17-0.63Q168.83-0.63 168.83-6.03L168.83-6.03L168.83-6.03Q168.83-7.36 168.44-9.18L168.44-9.18L168.44-9.18Q168.05-10.99 167.98-11.43L167.98-11.43L167.98-11.43Q165.72-9.10 162.91-8.62L162.91-8.62L162.91-9.51L162.91-9.51Q165.57-10.10 167.91-12.54L167.91-12.54L167.91-12.69L167.91-12.69Q167.91-13.58 168.16-14.43L168.16-14.43L168.16-14.43Q168.42-15.28 168.68-15.69L168.68-15.69L168.94-16.09L169.83-16.09L169.83-16.09Q169.83-14.47 170.35-13.12L170.35-13.12L170.35-13.12Q170.87-11.77 171.49-10.93L171.49-10.93L171.49-10.93Q172.12-10.10 172.64-8.75L172.64-8.75L172.64-8.75Q173.16-7.40 173.16-5.77L173.16-5.77L173.16-5.77Q173.16-3.15 171.18-1.41L171.18-1.41L171.18-1.41Q169.20 0.33 166.43 0.33L166.43 0.33L166.43 0.33Q163.65 0.33 162.23-0.92L162.23-0.92L162.23-0.92Q160.80-2.18 160.80-3.83L160.80-3.83L160.80-3.83Q160.80-5.48 161.62-6.20L161.62-6.20L161.62-6.20Q162.43-6.92 163.54-6.92L163.54-6.92L163.54-6.92Q164.65-6.92 165.37-6.20L165.37-6.20L165.37-6.20Q166.09-5.48 166.09-4.35L166.09-4.35L166.09-4.35Q166.09-3.22 165.39-2.44L165.39-2.44L165.39-2.44Q164.69-1.66 163.58-1.66L163.58-1.66L163.58-1.66Q163.10-1.66 162.58-1.81L162.58-1.81L162.58-1.81Q163.39-0.63 165.17-0.63" fill="#51cacc" stroke="none" stroke-width="none" transform="translate(-90.42500305175781,9.765509995680587)" style="fill: rgb(81, 202, 204);"></path></g><g class="path" style="opacity: 1; transform-origin: 86.6px 8.19551px 0px; animation: 1s linear -0.0507692s infinite normal forwards running blink-7ffda10c-09c8-4e6a-b42e-0e65e7619315;"><path d="M175.69-0.24L175.69-0.24L175.69-0.24Q175.16-0.78 175.16-1.55L175.16-1.55L175.16-1.55Q175.16-2.33 175.69-2.89L175.69-2.89L175.69-2.89Q176.23-3.44 177.01-3.44L177.01-3.44L177.01-3.44Q177.78-3.44 178.34-2.89L178.34-2.89L178.34-2.89Q178.89-2.33 178.89-1.55L178.89-1.55L178.89-1.55Q178.89-0.78 178.34-0.24L178.34-0.24L178.34-0.24Q177.78 0.30 177.01 0.30L177.01 0.30L177.01 0.30Q176.23 0.30 175.69-0.24" fill="#51cacc" stroke="none" stroke-width="none" transform="translate(-90.42500305175781,9.765509995680587)" style="fill: rgb(157, 248, 113);"></path></g><g class="path" style="opacity: 1; transform-origin: 88.95px -3.84949px 0px; animation: 1s linear 0s infinite normal forwards running blink-7ffda10c-09c8-4e6a-b42e-0e65e7619315;"><path d="M178.23-4.51L177.23-4.63L180.45-22.72L181.52-22.57L178.23-4.51" fill="#51cacc" stroke="none" stroke-width="none" transform="translate(-90.42500305175781,9.765509995680587)" style="fill: rgb(224, 255, 119);"></path></g></g>
</g>
</g>
<style id="blink-7ffda10c-09c8-4e6a-b42e-0e65e7619315" data-anikit="">@keyframes blink-7ffda10c-09c8-4e6a-b42e-0e65e7619315 {
  0% { opacity: 1; }
  49.75% { opacity: 1; }
  50.25% { opacity: 0; }
  99.5% { opacity: 0; }
  100% { opacity: 1; }
}</style></svg>