<?xml version="1.0" encoding="utf-8"?>
<svg xmlns="http://www.w3.org/2000/svg" style="margin: auto; display: block; shape-rendering: auto;" width="269" height="65" preserveAspectRatio="xMidYMid">
<style type="text/css">
  text {
    text-anchor: middle; font-size: 58px; opacity: 0;
  }
</style>
<g style="transform-origin: 134.5px 32.5px 0px; transform: scale(0.725);">
<g transform="translate(134.5,32.5)">
  <g transform="translate(0,0)"><g class="path" style="transform: rotate(0deg); transform-origin: -176.66px 3.69997px 0px; animation: 1s linear -0.609231s infinite normal forwards running spin-f07e9fbf-ab89-4423-a524-321ada790900;"><path d="M46.48-44.24L46.48-44.24L46.48-44.24Q40.16-46.96 32.76-46.96L32.76-46.96L32.76-46.96Q25.36-46.96 20.76-42.24L20.76-42.24L20.76-42.24Q16.16-37.52 16.16-29.92L16.16-29.92L14.40-29.92L14.40-29.92Q14.40-38.24 19.52-43.48L19.52-43.48L19.52-43.48Q24.64-48.72 32.64-48.72L32.64-48.72L32.64-48.72Q39.04-48.72 46.48-46.24L46.48-46.24L46.48-46.24Q55.04-43.12 65.04-43.12L65.04-43.12L65.04-41.44L65.04-41.44Q59.04-41.44 55.44-42L55.44-42L55.44-42Q55.36-41.68 54.88-39.36L54.88-39.36L54.88-39.36Q51.92-26.24 50.08-18.48L50.08-18.48L71.52-18.48L79.68-53.20L81.36-53.20L70.16-5.12L70.16-5.12Q69.44-2.16 69.44-1.12L69.44-1.12L69.44-1.12Q69.44 2.24 72.56 2.24L72.56 2.24L72.56 2.24Q74.80 2.24 76.48-0.08L76.48-0.08L77.60 0.88L77.60 0.88Q77.04 1.92 75.60 2.84L75.60 2.84L75.60 2.84Q74.16 3.76 72.12 3.76L72.12 3.76L72.12 3.76Q70.08 3.76 68.92 2.40L68.92 2.40L68.92 2.40Q67.76 1.04 67.76-0.88L67.76-0.88L68.72-6.16L71.20-17.04L49.68-17.04L49.68-17.04Q48.80-13.68 47.92-9.76L47.92-9.76L47.92-9.76Q47.04-5.84 45.80-2.08L45.80-2.08L45.80-2.08Q44.56 1.68 42.40 5.68L42.40 5.68L42.40 5.68Q40.24 9.68 37.56 12.20L37.56 12.20L37.56 12.20Q34.88 14.72 30.84 16.36L30.84 16.36L30.84 16.36Q26.80 18 22.12 18L22.12 18L22.12 18Q17.44 18 13.28 16.24L13.28 16.24L13.28 16.24Q9.12 14.48 6.32 11.36L6.32 11.36L6.32 11.36Q1.52 5.84 1.52-2L1.52-2L1.52-2Q1.52-3.28 1.60-4.56L1.60-4.56L3.36-4.32L3.36-4.32Q3.28-3.20 3.28-2.08L3.28-2.08L3.28-2.08Q3.28 5.36 7.80 10.36L7.80 10.36L7.80 10.36Q12.32 15.36 20 15.36L20 15.36L20 15.36Q27.68 15.36 30.80 11.28L30.80 11.28L30.80 11.28Q33.92 7.20 36.76-4.40L36.76-4.40L36.76-4.40Q39.60-16 46.48-44.24" fill="#51cacc" stroke="none" stroke-width="none" transform="translate(-218.10001373291016,21.299975726787856)" style="fill: rgb(81, 202, 204);"></path></g><g class="path" style="transform: rotate(0deg); transform-origin: -120.18px 6.09998px 0px; animation: 1s linear -0.558462s infinite normal forwards running spin-f07e9fbf-ab89-4423-a524-321ada790900;"><path d="M101.44-31.12L101.44-31.12L101.44-31.12Q111.60-31.12 111.60-23.04L111.60-23.04L111.60-23.04Q111.60-18 106.84-15.40L106.84-15.40L106.84-15.40Q102.08-12.80 93.28-12.72L93.28-12.72L93.28-12.72Q93.12-9.84 93.12-8.16L93.12-8.16L93.12-8.16Q93.12-4.56 94.76-2.84L94.76-2.84L94.76-2.84Q96.40-1.12 98.88-1.12L98.88-1.12L98.88-1.12Q101.36-1.12 103.40-2.08L103.40-2.08L103.40-2.08Q105.44-3.04 106.64-4.36L106.64-4.36L106.64-4.36Q107.84-5.68 108.72-7.12L108.72-7.12L108.72-7.12Q110.32-9.76 110.32-10.48L110.32-10.48L111.76-9.84L111.76-9.84Q111.52-8.56 110.32-6.44L110.32-6.44L110.32-6.44Q109.12-4.32 107.68-2.96L107.68-2.96L107.68-2.96Q106.24-1.60 103.44-0.44L103.44-0.44L103.44-0.44Q100.64 0.72 97.20 0.72L97.20 0.72L97.20 0.72Q90.72 0.72 87.40-2.36L87.40-2.36L87.40-2.36Q84.08-5.44 84.08-10.80L84.08-10.80L84.08-10.80Q84.08-20.32 88.80-25.72L88.80-25.72L88.80-25.72Q93.52-31.12 101.44-31.12zM109.60-23.04L109.60-23.04Q109.60-25.68 108.04-27.40L108.04-27.40L108.04-27.40Q106.48-29.12 103.40-29.12L103.40-29.12L103.40-29.12Q100.32-29.12 97.40-25.44L97.40-25.44L97.40-25.44Q94.48-21.76 93.52-14.56L93.52-14.56L93.52-14.56Q109.60-14.64 109.60-23.04L109.60-23.04" fill="#51cacc" stroke="none" stroke-width="none" transform="translate(-218.10001373291016,21.299975726787856)" style="fill: rgb(157, 248, 113);"></path></g><g class="path" style="transform: rotate(0deg); transform-origin: -90.62px -4.26003px 0px; animation: 1s linear -0.507692s infinite normal forwards running spin-f07e9fbf-ab89-4423-a524-321ada790900;"><path d="M130.56-2.88L130.56-2.88L130.56-2.88Q129.52-1.52 127.72-0.40L127.72-0.40L127.72-0.40Q125.92 0.72 123.04 0.72L123.04 0.72L123.04 0.72Q120.16 0.72 118.16-1.12L118.16-1.12L118.16-1.12Q116.16-2.96 116.16-6.32L116.16-6.32L116.16-6.32Q116.16-6.96 116.32-8.40L116.32-8.40L121.52-37.20L121.52-37.20Q122.96-45.12 125.48-48.48L125.48-48.48L125.48-48.48Q128-51.84 132.16-51.84L132.16-51.84L132.16-51.84Q135.04-51.84 136.92-49.68L136.92-49.68L136.92-49.68Q138.80-47.52 138.80-43.12L138.80-43.12L138.80-43.12Q138.80-38.72 135.40-30.56L135.40-30.56L135.40-30.56Q132-22.40 132-18.64L132-18.64L130.56-18.64L130.56-18.64Q130.56-22.88 133.92-30.76L133.92-30.76L133.92-30.76Q137.28-38.64 137.28-43.36L137.28-43.36L137.28-43.36Q137.28-46.24 135.96-48.32L135.96-48.32L135.96-48.32Q134.64-50.40 132.72-50.40L132.72-50.40L132.72-50.40Q132.64-48.32 129.96-31.72L129.96-31.72L129.96-31.72Q127.28-15.12 124.64-0.88L124.64-0.88L124.64-0.88Q126.88-0.88 128.80-3.20L128.80-3.20L128.80-3.20Q130.72-5.52 131.52-7.84L131.52-7.84L132.40-10.24L133.84-9.60L133.84-9.60Q133.60-8.48 132.60-6.36L132.60-6.36L132.60-6.36Q131.60-4.24 130.56-2.88" fill="#51cacc" stroke="none" stroke-width="none" transform="translate(-218.10001373291016,21.299975726787856)" style="fill: rgb(224, 255, 119);"></path></g><g class="path" style="transform: rotate(0deg); transform-origin: -68.38px -4.26003px 0px; animation: 1s linear -0.456923s infinite normal forwards running spin-f07e9fbf-ab89-4423-a524-321ada790900;"><path d="M152.80-2.88L152.80-2.88L152.80-2.88Q151.76-1.52 149.96-0.40L149.96-0.40L149.96-0.40Q148.16 0.72 145.28 0.72L145.28 0.72L145.28 0.72Q142.40 0.72 140.40-1.12L140.40-1.12L140.40-1.12Q138.40-2.96 138.40-6.32L138.40-6.32L138.40-6.32Q138.40-6.96 138.56-8.40L138.56-8.40L143.76-37.20L143.76-37.20Q145.20-45.12 147.72-48.48L147.72-48.48L147.72-48.48Q150.24-51.84 154.40-51.84L154.40-51.84L154.40-51.84Q157.28-51.84 159.16-49.68L159.16-49.68L159.16-49.68Q161.04-47.52 161.04-43.12L161.04-43.12L161.04-43.12Q161.04-38.72 157.64-30.56L157.64-30.56L157.64-30.56Q154.24-22.40 154.24-18.64L154.24-18.64L152.80-18.64L152.80-18.64Q152.80-22.88 156.16-30.76L156.16-30.76L156.16-30.76Q159.52-38.64 159.52-43.36L159.52-43.36L159.52-43.36Q159.52-46.24 158.20-48.32L158.20-48.32L158.20-48.32Q156.88-50.40 154.96-50.40L154.96-50.40L154.96-50.40Q154.88-48.32 152.20-31.72L152.20-31.72L152.20-31.72Q149.52-15.12 146.88-0.88L146.88-0.88L146.88-0.88Q149.12-0.88 151.04-3.20L151.04-3.20L151.04-3.20Q152.96-5.52 153.76-7.84L153.76-7.84L154.64-10.24L156.08-9.60L156.08-9.60Q155.84-8.48 154.84-6.36L154.84-6.36L154.84-6.36Q153.84-4.24 152.80-2.88" fill="#51cacc" stroke="none" stroke-width="none" transform="translate(-218.10001373291016,21.299975726787856)" style="fill: rgb(222, 157, 214);"></path></g><g class="path" style="transform: rotate(0deg); transform-origin: -42.02px 6.09998px 0px; animation: 1s linear -0.406154s infinite normal forwards running spin-f07e9fbf-ab89-4423-a524-321ada790900;"><path d="M172.96 0.72L172.96 0.72Q166.80 0.72 163.60-2.36L163.60-2.36L163.60-2.36Q160.40-5.44 160.40-10.12L160.40-10.12L160.40-10.12Q160.40-14.80 161.24-18.12L161.24-18.12L161.24-18.12Q162.08-21.44 164-24.52L164-24.52L164-24.52Q165.92-27.60 169.80-29.36L169.80-29.36L169.80-29.36Q173.68-31.12 179.48-31.12L179.48-31.12L179.48-31.12Q185.28-31.12 188.52-28.04L188.52-28.04L188.52-28.04Q191.76-24.96 191.76-19.60L191.76-19.60L191.76-19.60Q191.76-10.48 186.92-4.88L186.92-4.88L186.92-4.88Q182.08 0.72 172.96 0.72L172.96 0.72zM169.44-7.52L169.44-7.52L169.44-7.52Q169.44-1.12 173.16-1.12L173.16-1.12L173.16-1.12Q176.88-1.12 179.80-7.56L179.80-7.56L179.80-7.56Q182.72-14 182.72-22.88L182.72-22.88L182.72-22.88Q182.72-29.60 179.08-29.60L179.08-29.60L179.08-29.60Q175.44-29.60 172.44-23.48L172.44-23.48L172.44-23.48Q169.44-17.36 169.44-7.52" fill="#51cacc" stroke="none" stroke-width="none" transform="translate(-218.10001373291016,21.299975726787856)" style="fill: rgb(255, 112, 142);"></path></g><g class="path" style="transform: rotate(0deg); transform-origin: -17.7px 20.46px 0px; animation: 1s linear -0.355385s infinite normal forwards running spin-f07e9fbf-ab89-4423-a524-321ada790900;"><path d="M197.52-1.04L197.52-1.04L197.52-1.04Q195.84-2.72 195.84-5.12L195.84-5.12L195.84-5.12Q195.84-7.52 197.52-9.24L197.52-9.24L197.52-9.24Q199.20-10.96 201.60-10.96L201.60-10.96L201.60-10.96Q204-10.96 205.72-9.24L205.72-9.24L205.72-9.24Q207.44-7.52 207.44-5.12L207.44-5.12L207.44-5.12Q207.44-1.20 203.96 3.12L203.96 3.12L203.96 3.12Q200.48 7.44 194.08 9.28L194.08 9.28L193.36 7.60L193.36 7.60Q196.96 6.40 199.48 4.60L199.48 4.60L199.48 4.60Q202 2.80 202.72 1.60L202.72 1.60L203.44 0.32L203.44 0.32Q202.72 0.64 201.60 0.64L201.60 0.64L201.60 0.64Q199.20 0.64 197.52-1.04" fill="#51cacc" stroke="none" stroke-width="none" transform="translate(-218.10001373291016,21.299975726787856)" style="fill: rgb(81, 202, 204);"></path></g><g class="path" style="transform: rotate(0deg); transform-origin: 48.9px 3.13997px 0px; animation: 1s linear -0.304615s infinite normal forwards running spin-f07e9fbf-ab89-4423-a524-321ada790900;"><path d="M235.36-24.88L235.36-24.88L235.36-24.88Q235.36-17.28 243.44-14.72L243.44-14.72L243.44-14.72Q246.64-13.76 248.76-13.64L248.76-13.64L248.76-13.64Q250.88-13.52 251.04-13.68L251.04-13.68L251.12-12L250.64-12L250.64-12Q241.68-12 237.04-16.48L237.04-16.48L237.04-16.48Q233.68-19.60 233.68-24.88L233.68-24.88L233.68-24.88Q233.68-36.24 245.72-42.48L245.72-42.48L245.72-42.48Q257.76-48.72 279.60-48.72L279.60-48.72L279.60-48.72Q291.04-48.72 295.68-46.24L295.68-46.24L295.68-46.24Q300.32-43.76 300.32-39.12L300.32-39.12L300.32-39.12Q300.32-35.44 298-31.64L298-31.64L298-31.64Q295.68-27.84 292.40-23.76L292.40-23.76L292.40-23.76Q289.12-19.68 287.92-16.88L287.92-16.88L292.16-16.88L292-15.44L287.36-15.44L287.36-15.44Q286.72-13.36 286.72-11.68L286.72-11.68L285.04-11.68L285.04-11.68Q285.04-13.60 285.52-15.44L285.52-15.44L275.36-15.44L273.68-6.08L273.68-6.08Q272 2.56 265.60 7.48L265.60 7.48L265.60 7.48Q259.20 12.40 251.84 12.40L251.84 12.40L251.84 10.80L251.84 10.80Q257.28 10.72 258.84 8.48L258.84 8.48L258.84 8.48Q260.40 6.24 261.92-2.48L261.92-2.48L264.08-15.44L260-15.44L260.16-16.88L264.32-16.88L269.52-46.72L269.52-46.72Q253.12-45.36 244.24-39.72L244.24-39.72L244.24-39.72Q235.36-34.08 235.36-24.88zM298.40-39.12L298.40-39.12L298.40-39.12Q298.40-47.12 280.24-47.12L280.24-47.12L280.24-47.12Q276.96-24.48 275.60-16.88L275.60-16.88L286.08-16.88L286.08-16.88Q287.28-19.92 290.48-24.04L290.48-24.04L290.48-24.04Q293.68-28.16 296.04-31.92L296.04-31.92L296.04-31.92Q298.40-35.68 298.40-39.12" fill="#51cacc" stroke="none" stroke-width="none" transform="translate(-218.10001373291016,21.299975726787856)" style="fill: rgb(157, 248, 113);"></path></g><g class="path" style="transform: rotate(0deg); transform-origin: 98.54px 6.09998px 0px; animation: 1s linear -0.253846s infinite normal forwards running spin-f07e9fbf-ab89-4423-a524-321ada790900;"><path d="M313.52 0.72L313.52 0.72Q307.36 0.72 304.16-2.36L304.16-2.36L304.16-2.36Q300.96-5.44 300.96-10.12L300.96-10.12L300.96-10.12Q300.96-14.80 301.80-18.12L301.80-18.12L301.80-18.12Q302.64-21.44 304.56-24.52L304.56-24.52L304.56-24.52Q306.48-27.60 310.36-29.36L310.36-29.36L310.36-29.36Q314.24-31.12 320.04-31.12L320.04-31.12L320.04-31.12Q325.84-31.12 329.08-28.04L329.08-28.04L329.08-28.04Q332.32-24.96 332.32-19.60L332.32-19.60L332.32-19.60Q332.32-10.48 327.48-4.88L327.48-4.88L327.48-4.88Q322.64 0.72 313.52 0.72L313.52 0.72zM310-7.52L310-7.52L310-7.52Q310-1.12 313.72-1.12L313.72-1.12L313.72-1.12Q317.44-1.12 320.36-7.56L320.36-7.56L320.36-7.56Q323.28-14 323.28-22.88L323.28-22.88L323.28-22.88Q323.28-29.60 319.64-29.60L319.64-29.60L319.64-29.60Q316-29.60 313-23.48L313-23.48L313-23.48Q310-17.36 310-7.52" fill="#51cacc" stroke="none" stroke-width="none" transform="translate(-218.10001373291016,21.299975726787856)" style="fill: rgb(224, 255, 119);"></path></g><g class="path" style="transform: rotate(0deg); transform-origin: 129.7px -4.26003px 0px; animation: 1s linear -0.203077s infinite normal forwards running spin-f07e9fbf-ab89-4423-a524-321ada790900;"><path d="M350.88-2.88L350.88-2.88L350.88-2.88Q349.84-1.52 348.04-0.40L348.04-0.40L348.04-0.40Q346.24 0.72 343.36 0.72L343.36 0.72L343.36 0.72Q340.48 0.72 338.48-1.12L338.48-1.12L338.48-1.12Q336.48-2.96 336.48-6.32L336.48-6.32L336.48-6.32Q336.48-6.96 336.64-8.40L336.64-8.40L341.84-37.20L341.84-37.20Q343.28-45.12 345.80-48.48L345.80-48.48L345.80-48.48Q348.32-51.84 352.48-51.84L352.48-51.84L352.48-51.84Q355.36-51.84 357.24-49.68L357.24-49.68L357.24-49.68Q359.12-47.52 359.12-43.12L359.12-43.12L359.12-43.12Q359.12-38.72 355.72-30.56L355.72-30.56L355.72-30.56Q352.32-22.40 352.32-18.64L352.32-18.64L350.88-18.64L350.88-18.64Q350.88-22.88 354.24-30.76L354.24-30.76L354.24-30.76Q357.60-38.64 357.60-43.36L357.60-43.36L357.60-43.36Q357.60-46.24 356.28-48.32L356.28-48.32L356.28-48.32Q354.96-50.40 353.04-50.40L353.04-50.40L353.04-50.40Q352.96-48.32 350.28-31.72L350.28-31.72L350.28-31.72Q347.60-15.12 344.96-0.88L344.96-0.88L344.96-0.88Q347.20-0.88 349.12-3.20L349.12-3.20L349.12-3.20Q351.04-5.52 351.84-7.84L351.84-7.84L352.72-10.24L354.16-9.60L354.16-9.60Q353.92-8.48 352.92-6.36L352.92-6.36L352.92-6.36Q351.92-4.24 350.88-2.88" fill="#51cacc" stroke="none" stroke-width="none" transform="translate(-218.10001373291016,21.299975726787856)" style="fill: rgb(222, 157, 214);"></path></g><g class="path" style="transform: rotate(0deg); transform-origin: 156.9px -4.26003px 0px; animation: 1s linear -0.152308s infinite normal forwards running spin-f07e9fbf-ab89-4423-a524-321ada790900;"><path d="M370-15.44L370-15.44L367.12 0L357.60 0L366.64-50.24L366.64-50.24Q364.24-50 362.64-48L362.64-48L361.44-48.96L361.44-48.96Q363.84-51.84 367.48-51.84L367.48-51.84L367.48-51.84Q371.12-51.84 373.12-50L373.12-50L373.12-50Q375.12-48.16 375.12-44.80L375.12-44.80L375.12-44.80Q375.12-44.16 374.96-42.72L374.96-42.72L374.96-42.72Q373.12-32.56 370.96-20.80L370.96-20.80L370.96-20.80Q372.96-25.68 376.72-28.40L376.72-28.40L376.72-28.40Q380.48-31.12 384.72-31.12L384.72-31.12L384.72-31.12Q388.96-31.12 390.68-29.44L390.68-29.44L390.68-29.44Q392.40-27.76 392.40-25.24L392.40-25.24L392.40-25.24Q392.40-22.72 390.88-21.12L390.88-21.12L390.88-21.12Q389.36-19.52 386.92-19.52L386.92-19.52L386.92-19.52Q384.48-19.52 383.16-20.92L383.16-20.92L383.16-20.92Q381.84-22.32 381.84-25.08L381.84-25.08L381.84-25.08Q381.84-27.84 383.76-29.28L383.76-29.28L383.76-29.28Q376.08-28.40 371.52-17.92L371.52-17.92L371.52-17.92Q372.64-18.08 373.44-18.08L373.44-18.08L373.44-18.08Q377.68-18.08 380.12-16.40L380.12-16.40L380.12-16.40Q382.56-14.72 383.28-12.28L383.28-12.28L383.28-12.28Q384-9.84 384.32-7.40L384.32-7.40L384.32-7.40Q384.64-4.96 385.36-3.28L385.36-3.28L385.36-3.28Q386.08-1.60 387.92-1.60L387.92-1.60L387.92-1.60Q389.76-1.60 390.80-3.12L390.80-3.12L392-2.16L392-2.16Q391.44-1.04 389.52-0.16L389.52-0.16L389.52-0.16Q387.60 0.72 384.60 0.72L384.60 0.72L384.60 0.72Q381.60 0.72 379.32-0.80L379.32-0.80L379.32-0.80Q377.04-2.32 376.16-4.60L376.16-4.60L376.16-4.60Q375.28-6.88 374.72-9.12L374.72-9.12L374.72-9.12Q373.20-14.88 370-15.44" fill="#51cacc" stroke="none" stroke-width="none" transform="translate(-218.10001373291016,21.299975726787856)" style="fill: rgb(255, 112, 142);"></path></g><g class="path" style="transform: rotate(0deg); transform-origin: 188.14px 4.25998px 0px; animation: 1s linear -0.101538s infinite normal forwards running spin-f07e9fbf-ab89-4423-a524-321ada790900;"><path d="M402.32-1.36L402.32-1.36L402.32-1.36Q410.24-1.36 410.24-13.04L410.24-13.04L410.24-13.04Q410.24-15.92 409.40-19.84L409.40-19.84L409.40-19.84Q408.56-23.76 408.40-24.72L408.40-24.72L408.40-24.72Q403.52-19.68 397.44-18.64L397.44-18.64L397.44-20.56L397.44-20.56Q403.20-21.84 408.24-27.12L408.24-27.12L408.24-27.44L408.24-27.44Q408.24-29.36 408.80-31.20L408.80-31.20L408.80-31.20Q409.36-33.04 409.92-33.92L409.92-33.92L410.48-34.80L412.40-34.80L412.40-34.80Q412.40-31.28 413.52-28.36L413.52-28.36L413.52-28.36Q414.64-25.44 416.00-23.64L416.00-23.64L416.00-23.64Q417.36-21.84 418.48-18.92L418.48-18.92L418.48-18.92Q419.60-16 419.60-12.48L419.60-12.48L419.60-12.48Q419.60-6.80 415.32-3.04L415.32-3.04L415.32-3.04Q411.04 0.72 405.04 0.72L405.04 0.72L405.04 0.72Q399.04 0.72 395.96-2L395.96-2L395.96-2Q392.88-4.72 392.88-8.28L392.88-8.28L392.88-8.28Q392.88-11.84 394.64-13.40L394.64-13.40L394.64-13.40Q396.40-14.96 398.80-14.96L398.80-14.96L398.80-14.96Q401.20-14.96 402.76-13.40L402.76-13.40L402.76-13.40Q404.32-11.84 404.32-9.40L404.32-9.40L404.32-9.40Q404.32-6.96 402.80-5.28L402.80-5.28L402.80-5.28Q401.28-3.60 398.88-3.60L398.88-3.60L398.88-3.60Q397.84-3.60 396.72-3.92L396.72-3.92L396.72-3.92Q398.48-1.36 402.32-1.36" fill="#51cacc" stroke="none" stroke-width="none" transform="translate(-218.10001373291016,21.299975726787856)" style="fill: rgb(81, 202, 204);"></path></g><g class="path" style="transform: rotate(0deg); transform-origin: 209.86px 17.9px 0px; animation: 1s linear -0.0507692s infinite normal forwards running spin-f07e9fbf-ab89-4423-a524-321ada790900;"><path d="M425.08-0.52L425.08-0.52L425.08-0.52Q423.92-1.68 423.92-3.36L423.92-3.36L423.92-3.36Q423.92-5.04 425.08-6.24L425.08-6.24L425.08-6.24Q426.24-7.44 427.92-7.44L427.92-7.44L427.92-7.44Q429.60-7.44 430.80-6.24L430.80-6.24L430.80-6.24Q432.00-5.04 432.00-3.36L432.00-3.36L432.00-3.36Q432.00-1.68 430.80-0.52L430.80-0.52L430.80-0.52Q429.60 0.64 427.92 0.64L427.92 0.64L427.92 0.64Q426.24 0.64 425.08-0.52" fill="#51cacc" stroke="none" stroke-width="none" transform="translate(-218.10001373291016,21.299975726787856)" style="fill: rgb(157, 248, 113);"></path></g><g class="path" style="transform: rotate(0deg); transform-origin: 214.94px -8.14002px 0px; animation: 1s linear 0s infinite normal forwards running spin-f07e9fbf-ab89-4423-a524-321ada790900;"><path d="M430.56-9.76L428.40-10L435.36-49.12L437.68-48.80L430.56-9.76" fill="#51cacc" stroke="none" stroke-width="none" transform="translate(-218.10001373291016,21.299975726787856)" style="fill: rgb(224, 255, 119);"></path></g></g>
</g>
</g>
<style id="spin-f07e9fbf-ab89-4423-a524-321ada790900" data-anikit="">@keyframes spin-f07e9fbf-ab89-4423-a524-321ada790900
{
  0% {
    animation-timing-function: cubic-bezier(0.3522,0.0139,0.884,0.1921);
    transform: rotate(0deg);
  }
  45% {
    animation-timing-function: cubic-bezier(0.5025,0.3261,0.4975,0.6739);
    transform: rotate(82.08deg);
  }
  55% {
    animation-timing-function: cubic-bezier(0.116,0.8079,0.6478,0.9861);
    transform: rotate(277.92deg);
  }
  100% {
    transform: rotate(360deg);
  }
}</style></svg>